# Made in Blockbench 5.2.1
mtllib block.mtl

o body
v 0 0 0
v 0 1 0
v 0.21874999999999994 0.75 0.3705127018922193
v 0.21874999999999997 0.2500000000000001 0.37051270189221935
v 0.43749999999999994 0.75 2.6197106483996713e-17
v 0.4375 0.2500000000000001 2.619710648399672e-17
v 0.21874999999999994 0.75 -0.3705127018922193
v 0.21874999999999997 0.2500000000000001 -0.37051270189221935
v -0.21875 0.75 -0.37051270189221924
v -0.21875000000000006 0.2500000000000001 -0.3705127018922193
v -0.43749999999999994 0.75 -7.859131945199014e-17
v -0.4375 0.2500000000000001 -7.859131945199014e-17
v -0.21875000000000014 0.75 0.3705127018922192
v -0.2187500000000002 0.2500000000000001 0.3705127018922192
vt 0 0.5
vt 0.5 0.5
vt 0.25 1
vt 0 1
vt 0 0.5
vt 0.5 0.5
vt 0.5 1
vt 0.5 1
vt 0 1
vt 0.25 0.5
vt 0 0.5
vt 0.5 0.5
vt 0.25 1
vt 0 1
vt 0 0.5
vt 0.5 0.5
vt 0.5 1
vt 0.5 1
vt 0 1
vt 0.25 0.5
vt 0 0.5
vt 0.5 0.5
vt 0.25 1
vt 0 1
vt 0 0.5
vt 0.5 0.5
vt 0.5 1
vt 0.5 1
vt 0 1
vt 0.25 0.5
vt 0 0.5
vt 0.5 0.5
vt 0.25 1
vt 0 1
vt 0 0.5
vt 0.5 0.5
vt 0.5 1
vt 0.5 1
vt 0 1
vt 0.25 0.5
vt 0 0.5
vt 0.5 0.5
vt 0.25 1
vt 0 1
vt 0 0.5
vt 0.5 0.5
vt 0.5 1
vt 0.5 1
vt 0 1
vt 0.25 0.5
vt 0 0.5
vt 0.5 0.5
vt 0.25 1
vt 0 1
vt 0 0.5
vt 0.5 0.5
vt 0.5 1
vt 0.5 1
vt 0 1
vt 0.25 0.5
vn 0.47613272124712397 0.833232262182467 0.28110786011084277
vn 0.8611191826891836 1.0424580440872305e-16 0.5084031404355335
vn 0.4761327212471242 -0.833232262182467 0.2811078601108429
vn 0.47613272124712397 0.833232262182467 -0.28110786011084277
vn 0.8611191826891836 9.560343435679283e-17 -0.5084031404355335
vn 0.4761327212471242 -0.833232262182467 -0.2811078601108429
vn -7.096865068820469e-17 0.8289483352908664 -0.5593251803901746
vn -1.2688263138573217e-16 1.1102230246251568e-16 -1
vn -7.096865068820471e-17 -0.8289483352908662 -0.5593251803901749
vn -0.476132721247124 0.833232262182467 -0.28110786011084277
vn -0.8611191826891836 1.5204752158711944e-16 -0.5084031404355334
vn -0.4761327212471241 -0.8332322621824669 -0.28110786011084277
vn -0.4761327212471241 0.8332322621824669 0.2811078601108426
vn -0.8611191826891836 9.560343435679283e-17 0.5084031404355331
vn -0.47613272124712414 -0.8332322621824669 0.28110786011084266
vn -1.4193730137640938e-16 0.8289483352908665 0.5593251803901748
vn -3.8064789415719636e-16 4.2260405636839905e-32 1
vn -2.1290595206461406e-16 -0.8289483352908662 0.5593251803901749
usemtl stone
f 3/1/1 5/2/1 2/3/1
f 3/4/2 4/5/2 6/6/2 5/7/2
f 6/8/3 4/9/3 1/10/3
f 5/11/4 7/12/4 2/13/4
f 5/14/5 6/15/5 8/16/5 7/17/5
f 8/18/6 6/19/6 1/20/6
f 7/21/7 9/22/7 2/23/7
f 7/24/8 8/25/8 10/26/8 9/27/8
f 10/28/9 8/29/9 1/30/9
f 9/31/10 11/32/10 2/33/10
f 9/34/11 10/35/11 12/36/11 11/37/11
f 12/38/12 10/39/12 1/40/12
f 11/41/13 13/42/13 2/43/13
f 11/44/14 12/45/14 14/46/14 13/47/14
f 14/48/15 12/49/15 1/50/15
f 13/51/16 3/52/16 2/53/16
f 13/54/17 14/55/17 4/56/17 3/57/17
f 4/58/18 14/59/18 1/60/18
o tube
v 2.0816681711721685e-17 0 -4.163336342344337e-17
v 2.0816681711721685e-17 0.125 -4.163336342344337e-17
v 0.05177669529663691 0 0.12499999999999994
v 0.05177669529663691 0.125 0.12499999999999994
v 0.12500000000000003 0 0.05177669529663685
v 0.12500000000000003 0.125 0.05177669529663685
v 0.12500000000000003 0 -0.05177669529663692
v 0.12500000000000003 0.125 -0.05177669529663692
v 0.05177669529663692 0 -0.12500000000000006
v 0.05177669529663692 0.125 -0.12500000000000006
v -0.05177669529663685 0 -0.12500000000000006
v -0.05177669529663685 0.125 -0.12500000000000006
v -0.12499999999999994 0 -0.051776695296637004
v -0.12499999999999994 0.125 -0.051776695296637004
v -0.12499999999999997 0 0.05177669529663687
v -0.12499999999999997 0.125 0.05177669529663687
v -0.05177669529663695 0 0.12499999999999993
v -0.05177669529663695 0.125 0.12499999999999993
vt 1 0
vt 0.8414866977277752 0.3826839826552443
vt 0.45880410312987174 1.1102230246251565e-16
vt 0.5 0.4375
vt 0.9142125 0.4375
vt 0.9142125 0.9375
vt 0.5 0.9375
vt 0.5625 0
vt 0.9451839826552443 0.15851330227222482
vt 0.5625000000000001 0.5411958968701283
vt 1 0
vt 1 0.4142125
vt 0.5 0.20710624999999994
vt 0.5 0.4375
vt 0.9142125 0.4375
vt 0.9142125 0.9375
vt 0.5 0.9375
vt 0.875 0
vt 0.875 0.4142125
vt 0.375 0.20710624999999994
vt 0.5 0
vt 0.8826839826552443 0.15851330227222482
vt 0.5000000000000001 0.5411958968701283
vt 0.5 0.4375
vt 0.9142125 0.4375
vt 0.9142125 0.9375
vt 0.5 0.9375
vt 0.9786958968701283 0
vt 0.8201825945979034 0.3826839826552443
vt 0.4375 1.1102230246251565e-16
vt 0.5 0.0625
vt 0.9142125 0.0625
vt 0.70710625 0.5625
vt 0.5 0.4375
vt 0.9142125 0.4375
vt 0.9142125 0.9375
vt 0.5 0.9375
vt 0.8517125 0.5
vt 0.4375 0.5
vt 0.64460625 0
vt 0.375 0.3826839826552443
vt 0.5335133022722248 0
vt 0.9161958968701283 0.38268398265524417
vt 0.5 0.4375
vt 0.9142125 0.4375
vt 0.9142125 0.9375
vt 0.5 0.9375
vt 0.8201839826552442 0.5411958968701283
vt 0.4375 0.3826825945979032
vt 0.8201839826552444 0
vt 0.4375 0.4142125
vt 0.4375 0
vt 0.9375 0.20710624999999994
vt 0.5 0.4375
vt 0.9142125 0.4375
vt 0.9142125 0.9375
vt 0.5 0.9375
vt 0.4375 0.4375
vt 0.4375 0.023287500000000017
vt 0.9375 0.23039374999999995
vt 0.8201839826552442 0.625
vt 0.4375 0.46648669772777496
vt 0.8201839826552444 0.08380410312987174
vt 0.5 0.4375
vt 0.9142125 0.4375
vt 0.9142125 0.9375
vt 0.5 0.9375
vt 0.375 0.4375
vt 0.5335133022722248 0.05481601734475572
vt 0.9161958968701283 0.4374999999999999
vt 0.9142125 0.5625
vt 0.5 0.5625
vt 0.70710625 0.0625
vt 0.5 0.4375
vt 0.9142125 0.4375
vt 0.9142125 0.9375
vt 0.5 0.9375
vt 0.5 0.0625
vt 0.9142125 0.0625
vt 0.70710625 0.5625
vn 0 -1 0
vn 0.7071067811865474 0 0.7071067811865477
vn 0 1 0
vn 0 -1 0
vn 1 0 0
vn 0 1 0
vn 0 -1 0
vn 0.7071067811865477 0 -0.7071067811865475
vn 0 1 0
vn 0 -1 0
vn 0 0 -1
vn 0 1 0
vn 0 -1 0
vn -0.7071067811865474 0 -0.7071067811865478
vn 0 1 0
vn 0 -1 0
vn -1 0 -2.680315483308929e-16
vn 0 1 0
vn 0 -1 0
vn -0.7071067811865477 0 0.7071067811865474
vn 0 1 0
vn 0 -1 0
vn -1.3401577416544645e-16 0 1
vn 0 1 0
usemtl tube
f 19/61/19 17/62/19 15/63/19
f 17/64/20 19/65/20 20/66/20 18/67/20
f 18/68/21 20/69/21 16/70/21
f 21/71/22 19/72/22 15/73/22
f 19/74/23 21/75/23 22/76/23 20/77/23
f 20/78/24 22/79/24 16/80/24
f 23/81/25 21/82/25 15/83/25
f 21/84/26 23/85/26 24/86/26 22/87/26
f 22/88/27 24/89/27 16/90/27
f 25/91/28 23/92/28 15/93/28
f 23/94/29 25/95/29 26/96/29 24/97/29
f 24/98/30 26/99/30 16/100/30
f 27/101/31 25/102/31 15/103/31
f 25/104/32 27/105/32 28/106/32 26/107/32
f 26/108/33 28/109/33 16/110/33
f 29/111/34 27/112/34 15/113/34
f 27/114/35 29/115/35 30/116/35 28/117/35
f 28/118/36 30/119/36 16/120/36
f 31/121/37 29/122/37 15/123/37
f 29/124/38 31/125/38 32/126/38 30/127/38
f 30/128/39 32/129/39 16/130/39
f 17/131/40 31/132/40 15/133/40
f 31/134/41 17/135/41 18/136/41 32/137/41
f 32/138/42 18/139/42 16/140/42
o hat1
v 0 0.8125 0
v 0 1 0
v 0.2574251345948128 0.8125 0.4375
v 0.1324251345948128 1 0.25
v 0.5148502691896257 0.8125 3.0933444462809784e-17
v 0.26485026918962573 1 3.0933444462809784e-17
v 0.2574251345948128 0.8125 -0.4375
v 0.1324251345948128 1 -0.25
v -0.2574251345948129 0.8125 -0.43749999999999994
v -0.13242513459481292 1 -0.24999999999999994
v -0.5148502691896257 0.8125 -9.280033338842934e-17
v -0.26485026918962573 1 -9.280033338842934e-17
v -0.25742513459481314 0.8125 0.43749999999999983
v -0.13242513459481314 1 0.24999999999999983
vt 0.57735 0.5
vt 0.288675 1
vt 0 0.5
vt 0 0.5
vt 0.57735 0.5
vt 0.57735 1
vt 0 1
vt 0.288675 0.5
vt 0.57735 1
vt 0 1
vt 0.288675 0.5
vt 0.57735 1
vt 0 1
vt 0 0.5
vt 0.57735 0.5
vt 0.57735 1
vt 0 1
vt 0.57735 0.5
vt 0.288675 1
vt 0 0.5
vt 0 0.5
vt 0.57735 0.5
vt 0.288675 1
vt 0 0.5
vt 0.57735 0.5
vt 0.57735 1
vt 0 1
vt 0.57735 1
vt 0 1
vt 0.288675 0.5
vt 0 1
vt 0.288675 0.5
vt 0.57735 1
vt 0 0.5
vt 0.57735 0.5
vt 0.57735 1
vt 0 1
vt 0.288675 1
vt 0 0.5
vt 0.57735 0.5
vt 0.288675 1
vt 0 0.5
vt 0.57735 0.5
vt 0 0.5
vt 0.57735 0.5
vt 0.57735 1
vt 0 1
vt 0 1
vt 0.288675 0.5
vt 0.57735 1
vt 0.57735 1
vt 0 1
vt 0.288675 0.5
vt 0 0.5
vt 0.57735 0.5
vt 0.57735 1
vt 0 1
vt 0 0.5
vt 0.57735 0.5
vt 0.288675 1
vn 0 -1 0
vn 0.5657766174011184 0.7543688232014911 0.3329031357373278
vn 0 1 0
vn 0 -1 0
vn 0.5850646930778919 0.7342953741180214 -0.3442522453994268
vn 0 1 0
vn 0 -1 0
vn -7.624024656504018e-17 0.7071067811865476 -0.7071067811865476
vn 0 1 0
vn 0 -1 0
vn -0.5657766174011185 0.7543688232014915 -0.3329031357373277
vn 0 1 0
vn 0 -1 0
vn -0.5850646930778921 0.7342953741180214 0.3442522453994265
vn 0 1 0
vn 0 -1 0
vn -2.2872073969512046e-16 0.7071067811865475 0.7071067811865476
vn 0 1 0
usemtl stone
f 37/141/43 35/142/43 33/143/43
f 35/144/44 37/145/44 38/146/44 36/147/44
f 36/148/45 38/149/45 34/150/45
f 39/151/46 37/152/46 33/153/46
f 37/154/47 39/155/47 40/156/47 38/157/47
f 38/158/48 40/159/48 34/160/48
f 41/161/49 39/162/49 33/163/49
f 39/164/50 41/165/50 42/166/50 40/167/50
f 40/168/51 42/169/51 34/170/51
f 43/171/52 41/172/52 33/173/52
f 41/174/53 43/175/53 44/176/53 42/177/53
f 42/178/54 44/179/54 34/180/54
f 45/181/55 43/182/55 33/183/55
f 43/184/56 45/185/56 46/186/56 44/187/56
f 44/188/57 46/189/57 34/190/57
f 35/191/58 45/192/58 33/193/58
f 45/194/59 35/195/59 36/196/59 46/197/59
f 46/198/60 36/199/60 34/200/60
o hat2
v 0 0.75 0
v 0 0.8125 0
v 0.2574251345948128 0.75 0.4375
v 0.2574251345948128 0.8125 0.4375
v 0.5148502691896257 0.75 3.0933444462809784e-17
v 0.5148502691896257 0.8125 3.0933444462809784e-17
v 0.2574251345948128 0.75 -0.4375
v 0.2574251345948128 0.8125 -0.4375
v -0.2574251345948129 0.75 -0.43749999999999994
v -0.2574251345948129 0.8125 -0.43749999999999994
v -0.5148502691896257 0.75 -9.280033338842934e-17
v -0.5148502691896257 0.8125 -9.280033338842934e-17
v -0.25742513459481314 0.75 0.43749999999999983
v -0.25742513459481314 0.8125 0.43749999999999983
vt 0.57735 0.5
vt 0.288675 1
vt 0 0.5
vt 0 0.0625
vt 1 0.0625
vt 1 0.375
vt 0 0.375
vt 0.288675 0.5
vt 0.57735 1
vt 0 1
vt 0.288675 0.5
vt 0.57735 1
vt 0 1
vt 0 0.0625
vt 1 0.0625
vt 1 0.375
vt 0 0.375
vt 0.57735 0.5
vt 0.288675 1
vt 0 0.5
vt 0 0.5
vt 0.57735 0.5
vt 0.288675 1
vt 0 0.0625
vt 1 0.0625
vt 1 0.375
vt 0 0.375
vt 0.57735 1
vt 0 1
vt 0.288675 0.5
vt 0 1
vt 0.288675 0.5
vt 0.57735 1
vt 0 0.0625
vt 1 0.0625
vt 1 0.375
vt 0 0.375
vt 0.288675 1
vt 0 0.5
vt 0.57735 0.5
vt 0.288675 1
vt 0 0.5
vt 0.57735 0.5
vt 0 0.0625
vt 1.01485 0.0625
vt 1.01485 0.375
vt 0 0.375
vt 0 1
vt 0.288675 0.5
vt 0.57735 1
vt 0.57735 1
vt 0 1
vt 0.288675 0.5
vt 0 0.0625
vt 1.0148499999999998 0.0625
vt 1.0148499999999998 0.375
vt 0 0.375
vt 0 0.5
vt 0.57735 0.5
vt 0.288675 1
vn 0 -1 0
vn 0.8618720557427747 0 0.5071257827499244
vn 0 1 0
vn 0 -1 0
vn 0.8618720557427749 0 -0.5071257827499244
vn 0 1 0
vn 0 -1 0
vn -1.078199906909486e-16 0 -1
vn 0 1 0
vn 0 -1 0
vn -0.8618720557427749 0 -0.5071257827499244
vn 0 1 0
vn 0 -1 0
vn -0.8618720557427751 0 0.5071257827499239
vn 0 1 0
vn 0 -1 0
vn -3.2345997207284566e-16 0 1
vn 0 1 0
usemtl band
f 51/201/61 49/202/61 47/203/61
f 49/204/62 51/205/62 52/206/62 50/207/62
f 50/208/63 52/209/63 48/210/63
f 53/211/64 51/212/64 47/213/64
f 51/214/65 53/215/65 54/216/65 52/217/65
f 52/218/66 54/219/66 48/220/66
f 55/221/67 53/222/67 47/223/67
f 53/224/68 55/225/68 56/226/68 54/227/68
f 54/228/69 56/229/69 48/230/69
f 57/231/70 55/232/70 47/233/70
f 55/234/71 57/235/71 58/236/71 56/237/71
f 56/238/72 58/239/72 48/240/72
f 59/241/73 57/242/73 47/243/73
f 57/244/74 59/245/74 60/246/74 58/247/74
f 58/248/75 60/249/75 48/250/75
f 49/251/76 59/252/76 47/253/76
f 59/254/77 49/255/77 50/256/77 60/257/77
f 60/258/78 50/259/78 48/260/78
o filter
v -0.3125 0.6875 0.1875
v -0.3125 0.6875 -0.1875
v -0.3125 0.3125 0.1875
v -0.3125 0.3125 -0.1875
v -0.4375 0.6875 -0.1875
v -0.4375 0.6875 0.1875
v -0.4375 0.3125 -0.1875
v -0.4375 0.3125 0.1875
vt 0.1875 0.6875
vt 0.3125 0.6875
vt 0.3125 0.3125
vt 0.1875 0.3125
vt 0.3125 0.6875
vt 0.6875 0.6875
vt 0.6875 0.3125
vt 0.3125 0.3125
vt 0.1875 0.6875
vt 0.3125 0.6875
vt 0.3125 0.3125
vt 0.1875 0.3125
vt 0.3125 0.6875
vt 0.6875 0.6875
vt 0.6875 0.3125
vt 0.3125 0.3125
vt 0.1875 0.6875
vt 0.3125 0.6875
vt 0.3125 0.3125
vt 0.1875 0.3125
vt 0.1875 0.6875
vt 0.3125 0.6875
vt 0.3125 0.3125
vt 0.1875 0.3125
vn 0 0 -1
vn 1 0 0
vn 0 0 1
vn -1 0 0
vn 0 1 0
vn 0 -1 0
usemtl filter
f 64/264/79 67/263/79 65/262/79 62/261/79
f 63/268/80 64/267/80 62/266/80 61/265/80
f 68/272/81 63/271/81 61/270/81 66/269/81
f 67/276/82 68/275/82 66/274/82 65/273/82
f 66/280/83 61/279/83 62/278/83 65/277/83
f 67/284/84 64/283/84 63/282/84 68/281/84