# Made in Blockbench 5.2.1
mtllib leg.mtl

o mesh
v 0.012500000000000067 0.005477514059233135 -0.42098402362431614
v -0.0124999999999999 0.005477514059233135 -0.4209840236243162
v 0.012500000000000011 -0.0025573310618486333 -0.41140846808532894
v -0.012499999999999956 -0.0025573310618486333 -0.41140846808532894
v 0.12500000000000003 0.3248835607131768 -0.2182408921478128
v -0.12499999999999996 0.3248835607131768 -0.21824089214781286
v 0.125 0.28470933510776814 -0.04536311445287673
v -0.12499999999999999 0.28470933510776814 -0.04536311445287673
vt 1 1
vt 0 1
vt 0 0.5
vt 1 0.5
vt 1 0.5
vt 1 1
vt 0 1
vt 0 0.5
vt 0 0
vt 1 0
vt 1 1
vt 0 1
vt 1 0
vt 1 1
vt 0 1
vt 0 0
vt 1 0.5
vt 1 1
vt 0 1
vt 0 0.5
vt 1 1
vt 0 1
vt 0 0.5
vt 1 0.5
vn 1.4272752084355357e-15 -0.7660444431189763 -0.6427876096865416
vn -5.864371065742844e-17 0.9740451926622236 0.2263536230141057
vn 1.4673120506516285e-15 0.5359057295767407 -0.8442778269070089
vn 0 -0.7866736005005193 0.6173691329144579
vn 0.9578262852211515 -0.22012125098008872 -0.18470366051166948
vn -0.9578262852211514 -0.2201212509800842 -0.18470366051167544
usemtl stone
f 2/1/1 1/2/1 3/3/1 4/4/1
f 7/5/2 5/6/2 6/7/2 8/8/2
f 5/9/3 1/10/3 2/11/3 6/12/3
f 4/13/4 3/14/4 7/15/4 8/16/4
f 3/17/5 1/18/5 5/19/5 7/20/5
f 6/21/6 2/22/6 4/23/6 8/24/6
o mesh
v -0.34209488272508776 0.005477514059233135 -0.23069232935946368
v -0.3545948827250878 0.005477514059233135 -0.20904169426485278
v -0.3338022083729761 -0.0025573310618486333 -0.22590455158997003
v -0.3463022083729761 -0.0025573310618486333 -0.2042539164953591
v -0.11026418042362743 0.3248835607131768 -0.2267486215469613
v -0.2352641804236275 0.3248835607131768 -0.010242270600851675
v 0.03945236680998597 0.28470933510776814 -0.1403097326994932
v -0.08554763319001404 0.28470933510776814 0.07619661824661644
vt 1 1
vt 0 1
vt 0 0.5
vt 1 0.5
vt 1 0.5
vt 1 1
vt 0 1
vt 0 0.5
vt 0 0
vt 1 0
vt 1 1
vt 0 1
vt 1 0
vt 1 1
vt 0 1
vt 0 0
vt 1 0.5
vt 1 1
vt 0 1
vt 0 0.5
vt 1 1
vt 0 1
vt 0 0.5
vt 1 0.5
vn -0.5566703992264206 -0.7660444431189763 -0.32139380484327207
vn 0.19602798776886146 0.9740451926622236 0.11317681150705293
vn -0.7311660459533901 0.5359057295767408 -0.42213891345350596
vn 0.5346573526162922 -0.7866736005005193 0.308684566457229
vn 0.3189550804354935 -0.22012125098008872 -0.9218537256698314
vn -0.6388712047856634 -0.2201212509800842 0.7371500651581588
usemtl stone
f 10/25/7 9/26/7 11/27/7 12/28/7
f 15/29/8 13/30/8 14/31/8 16/32/8
f 13/33/9 9/34/9 10/35/9 14/36/9
f 12/37/10 11/38/10 15/39/10 16/40/10
f 11/41/11 9/42/11 13/43/11 15/44/11
f 14/45/12 10/46/12 12/47/12 16/48/12
o mesh
v -0.35459488272508793 0.005477514059233135 0.17154169426485244
v -0.34209488272508803 0.005477514059233135 0.1931923293594634
v -0.34630220837297615 -0.0025573310618486333 0.16675391649535887
v -0.3338022083729762 -0.0025573310618486333 0.18840455158996983
v -0.2352641804236275 0.3248835607131768 -0.02725772939914853
v -0.11026418042362762 0.3248835607131768 0.18924862154696118
v -0.08554763319001403 0.28470933510776814 -0.11369661824661649
v 0.039452366809985914 0.28470933510776814 0.1028097326994932
vt 1 1
vt 0 1
vt 0 0.5
vt 1 0.5
vt 1 0.5
vt 1 1
vt 0 1
vt 0 0.5
vt 0 0
vt 1 0
vt 1 1
vt 0 1
vt 1 0
vt 1 1
vt 0 1
vt 0 0
vt 1 0.5
vt 1 1
vt 0 1
vt 0 0.5
vt 1 1
vt 0 1
vt 0 0.5
vt 1 0.5
vn -0.5566703992264221 -0.7660444431189763 0.3213938048432694
vn 0.19602798776886154 0.9740451926622236 -0.11317681150705274
vn -0.7311660459533917 0.5359057295767407 0.422138913453503
vn 0.5346573526162923 -0.7866736005005193 -0.30868456645722886
vn -0.638871204785658 -0.22012125098008872 -0.7371500651581622
vn 0.31895508043548787 -0.2201212509800842 0.9218537256698345
usemtl stone
f 18/49/13 17/50/13 19/51/13 20/52/13
f 23/53/14 21/54/14 22/55/14 24/56/14
f 21/57/15 17/58/15 18/59/15 22/60/15
f 20/61/16 19/62/16 23/63/16 24/64/16
f 19/65/17 17/66/17 21/67/17 23/68/17
f 22/69/18 18/70/18 20/71/18 24/72/18
o mesh
v -0.012500000000000018 0.005477514059233135 0.38348402362431616
v 0.012499999999999949 0.005477514059233135 0.3834840236243162
v -0.012499999999999963 -0.0025573310618486333 0.37390846808532896
v 0.012500000000000004 -0.0025573310618486333 0.37390846808532896
v -0.125 0.3248835607131768 0.1807408921478128
v 0.12499999999999999 0.3248835607131768 0.1807408921478128
v -0.125 0.28470933510776814 0.007863114452876737
v 0.12499999999999999 0.28470933510776814 0.00786311445287671
vt 1 1
vt 0 1
vt 0 0.5
vt 1 0.5
vt 1 0.5
vt 1 1
vt 0 1
vt 0 0.5
vt 0 0
vt 1 0
vt 1 1
vt 0 1
vt 1 0
vt 1 1
vt 0 1
vt 0 0
vt 1 0.5
vt 1 1
vt 0 1
vt 0 0.5
vt 1 1
vt 0 1
vt 0 0.5
vt 1 0.5
vn -1.3485564295621156e-15 -0.7660444431189763 0.6427876096865416
vn 3.0923386667465326e-17 0.9740451926622236 -0.2263536230141057
vn -1.3639178368203534e-15 0.5359057295767407 0.8442778269070089
vn -7.560591325160678e-17 -0.7866736005005193 -0.6173691329144579
vn -0.9578262852211515 -0.22012125098008872 0.1847036605116696
vn 0.9578262852211514 -0.2201212509800842 0.18470366051167533
usemtl stone
f 26/73/19 25/74/19 27/75/19 28/76/19
f 31/77/20 29/78/20 30/79/20 32/80/20
f 29/81/21 25/82/21 26/83/21 30/84/21
f 28/85/22 27/86/22 31/87/22 32/88/22
f 27/89/23 25/90/23 29/91/23 31/92/23
f 30/93/24 26/94/24 28/95/24 32/96/24
o mesh
v 0.34209488272508787 0.005477514059233135 0.1931923293594635
v 0.3545948827250879 0.005477514059233135 0.1715416942648526
v 0.3338022083729762 -0.0025573310618486333 0.18840455158996988
v 0.34630220837297615 -0.0025573310618486333 0.16675391649535892
v 0.11026418042362753 0.3248835607131768 0.18924862154696123
v 0.2352641804236275 0.3248835607131768 -0.027257729399148434
v -0.039452366809985914 0.28470933510776814 0.10280973269949321
v 0.08554763319001402 0.28470933510776814 -0.11369661824661648
vt 1 1
vt 0 1
vt 0 0.5
vt 1 0.5
vt 1 0.5
vt 1 1
vt 0 1
vt 0 0.5
vt 0 0
vt 1 0
vt 1 1
vt 0 1
vt 1 0
vt 1 1
vt 0 1
vt 0 0
vt 1 0.5
vt 1 1
vt 0 1
vt 0 0.5
vt 1 1
vt 0 1
vt 0 0.5
vt 1 0.5
vn 0.5566703992264207 -0.7660444431189761 0.3213938048432718
vn -0.1960279877688615 0.9740451926622236 -0.11317681150705285
vn 0.7311660459533902 0.5359057295767407 0.42213891345350557
vn -0.5346573526162923 -0.7866736005005193 -0.30868456645722886
vn -0.3189550804354931 -0.22012125098008872 0.9218537256698316
vn 0.6388712047856631 -0.2201212509800842 -0.7371500651581591
usemtl stone
f 34/97/25 33/98/25 35/99/25 36/100/25
f 39/101/26 37/102/26 38/103/26 40/104/26
f 37/105/27 33/106/27 34/107/27 38/108/27
f 36/109/28 35/110/28 39/111/28 40/112/28
f 35/113/29 33/114/29 37/115/29 39/116/29
f 38/117/30 34/118/30 36/119/30 40/120/30
o mesh
v 0.3545948827250878 0.005477514059233135 -0.2090416942648526
v 0.34209488272508787 0.005477514059233135 -0.23069232935946357
v 0.34630220837297615 -0.0025573310618486333 -0.20425391649535907
v 0.33380220837297614 -0.0025573310618486333 -0.22590455158997
v 0.23526418042362748 0.3248835607131768 -0.010242270600851578
v 0.11026418042362751 0.3248835607131768 -0.22674862154696127
v 0.08554763319001406 0.28470933510776814 0.07619661824661646
v -0.039452366809985956 0.28470933510776814 -0.14030973269949318
vt 1 1
vt 0 1
vt 0 0.5
vt 1 0.5
vt 1 0.5
vt 1 1
vt 0 1
vt 0 0.5
vt 0 0
vt 1 0
vt 1 1
vt 0 1
vt 1 0
vt 1 1
vt 0 1
vt 0 0
vt 1 0.5
vt 1 1
vt 0 1
vt 0 0.5
vt 1 1
vt 0 1
vt 0 0.5
vt 1 0.5
vn 0.5566703992264219 -0.7660444431189763 -0.3213938048432696
vn -0.19602798776886152 0.9740451926622236 0.11317681150705282
vn 0.7311660459533915 0.5359057295767407 -0.4221389134535033
vn -0.5346573526162922 -0.7866736005005193 0.308684566457229
vn 0.6388712047856583 -0.22012125098008872 0.737150065158162
vn -0.31895508043548826 -0.2201212509800842 -0.9218537256698343
usemtl stone
f 42/121/31 41/122/31 43/123/31 44/124/31
f 47/125/32 45/126/32 46/127/32 48/128/32
f 45/129/33 41/130/33 42/131/33 46/132/33
f 44/133/34 43/134/34 47/135/34 48/136/34
f 43/137/35 41/138/35 45/139/35 47/140/35
f 46/141/36 42/142/36 44/143/36 48/144/36