# Made in Blockbench 5.1.6
mtllib block.mtl

o cube
v 0.5 0.25 0.5
v 0.5 0.25 -0.5
v 0.5 0 0.5
v 0.5 0 -0.5
v -0.5 0.25 -0.5
v -0.5 0.25 0.5
v -0.5 0 -0.5
v -0.5 0 0.5
vt 0 0.25
vt 1 0.25
vt 1 0
vt 0 0
vt 0 0.25
vt 1 0.25
vt 1 0
vt 0 0
vt 0 0.25
vt 1 0.25
vt 1 0
vt 0 0
vt 0 0.25
vt 1 0.25
vt 1 0
vt 0 0
vt 0 1
vt 1 1
vt 1 0
vt 0 0
vt 0 1
vt 1 1
vt 1 0
vt 0 0
vn 0 0 -1
vn 1 0 0
vn 0 0 1
vn -1 0 0
vn 0 1 0
vn 0 -1 0
usemtl m_47e41a08-b801-4a7a-cb5f-dd521658487a
f 4/4/1 7/3/1 5/2/1 2/1/1
f 3/8/2 4/7/2 2/6/2 1/5/2
f 8/12/3 3/11/3 1/10/3 6/9/3
f 7/16/4 8/15/4 6/14/4 5/13/4
f 6/20/5 1/19/5 2/18/5 5/17/5
usemtl m_26ee961e-f780-2663-55e4-010fda81ba75
f 7/24/6 4/23/6 3/22/6 8/21/6
o pyramid
v 0 0.75 0
v 0.5 0.25 0.5
v 0.5 0.25 -0.5
v -0.5 0.25 0.5
v -0.5 0.25 -0.5
vt 1 0
vt 1 1
vt 0 1
vt 0 0
vt 0 -0.11803125000000003
vt 1 -0.11803125000000003
vt 0.5 1
vt 0 -0.11803125000000003
vt 1 -0.11803125000000003
vt 0.5 1
vt 0 -0.11803125000000003
vt 1 -0.11803125000000003
vt 0.5 1
vt 0 -0.11803125000000003
vt 1 -0.11803125000000003
vt 0.5 1
vn 0 -1 0
vn 0.7071067811865476 0.7071067811865476 0
vn 0 0.7071067811865476 0.7071067811865476
vn 0 0.7071067811865476 -0.7071067811865476
vn -0.7071067811865476 0.7071067811865476 0
usemtl m_47e41a08-b801-4a7a-cb5f-dd521658487a
f 11/25/7 10/26/7 12/27/7 13/28/7
f 10/29/8 11/30/8 9/31/8
f 12/32/9 10/33/9 9/34/9
f 11/35/10 13/36/10 9/37/10
f 13/38/11 12/39/11 9/40/11
o cube
v 0.25 0.75 0.25
v 0.25 0.75 -0.25
v 0.25 0.5 0.25
v 0.25 0.5 -0.25
v -0.25 0.75 -0.25
v -0.25 0.75 0.25
v -0.25 0.5 -0.25
v -0.25 0.5 0.25
vt 0.5 1
vt 1 1
vt 1 0.75
vt 0.5 0.75
vt 0.5 1
vt 1 1
vt 1 0.75
vt 0.5 0.75
vt 0.5 1
vt 1 1
vt 1 0.75
vt 0.5 0.75
vt 0.5 1
vt 1 1
vt 1 0.75
vt 0.5 0.75
vt 0.5 0.5
vt 0 0.5
vt 0 1
vt 0.5 1
vt 0.5 0.5
vt 0 0.5
vt 0 0
vt 0.5 0
vn 0 0 -1
vn 1 0 0
vn 0 0 1
vn -1 0 0
vn 0 1 0
vn 0 -1 0
usemtl m_f2e1103d-1971-8f53-2850-6fe050b34ac2
f 17/44/12 20/43/12 18/42/12 15/41/12
f 16/48/13 17/47/13 15/46/13 14/45/13
f 21/52/14 16/51/14 14/50/14 19/49/14
f 20/56/15 21/55/15 19/54/15 18/53/15
f 19/60/16 14/59/16 15/58/16 18/57/16
f 20/64/17 17/63/17 16/62/17 21/61/17