# Made in Blockbench 5.1.6
mtllib item.mtl

o cube
v 0.5 0.25 0.5
v 0.5 0.25 -0.5
v 0.5 0 0.5
v 0.5 0 -0.5
v -0.5 0.25 -0.5
v -0.5 0.25 0.5
v -0.5 0 -0.5
v -0.5 0 0.5
vt 0 0.25
vt 1 0.25
vt 1 0
vt 0 0
vt 0 0.25
vt 1 0.25
vt 1 0
vt 0 0
vt 0 0.25
vt 1 0.25
vt 1 0
vt 0 0
vt 0 0.25
vt 1 0.25
vt 1 0
vt 0 0
vt 0 1
vt 1 1
vt 1 0
vt 0 0
vt 0 1
vt 1 1
vt 1 0
vt 0 0
vn 0 0 -1
vn 1 0 0
vn 0 0 1
vn -1 0 0
vn 0 1 0
vn 0 -1 0
usemtl m_47e41a08-b801-4a7a-cb5f-dd521658487a
f 4/4/1 7/3/1 5/2/1 2/1/1
f 3/8/2 4/7/2 2/6/2 1/5/2
f 8/12/3 3/11/3 1/10/3 6/9/3
f 7/16/4 8/15/4 6/14/4 5/13/4
f 6/20/5 1/19/5 2/18/5 5/17/5
usemtl m_26ee961e-f780-2663-55e4-010fda81ba75
f 7/24/6 4/23/6 3/22/6 8/21/6
o pyramid
v 0 0.75 0
v 0.5 0.25 0.5
v 0.5 0.25 -0.5
v -0.5 0.25 0.5
v -0.5 0.25 -0.5
vt 1 0
vt 1 1
vt 0 1
vt 0 0
vt 0 -0.11803125000000003
vt 1 -0.11803125000000003
vt 0.5 1
vt 0 -0.11803125000000003
vt 1 -0.11803125000000003
vt 0.5 1
vt 0 -0.11803125000000003
vt 1 -0.11803125000000003
vt 0.5 1
vt 0 -0.11803125000000003
vt 1 -0.11803125000000003
vt 0.5 1
vn 0 -1 0
vn 0.7071067811865476 0.7071067811865476 0
vn 0 0.7071067811865476 0.7071067811865476
vn 0 0.7071067811865476 -0.7071067811865476
vn -0.7071067811865476 0.7071067811865476 0
usemtl m_47e41a08-b801-4a7a-cb5f-dd521658487a
f 11/25/7 10/26/7 12/27/7 13/28/7
f 10/29/8 11/30/8 9/31/8
f 12/32/9 10/33/9 9/34/9
f 11/35/10 13/36/10 9/37/10
f 13/38/11 12/39/11 9/40/11
o cube
v 0.25 0.75 0.25
v 0.25 0.75 -0.25
v 0.25 0.5 0.25
v 0.25 0.5 -0.25
v -0.25 0.75 -0.25
v -0.25 0.75 0.25
v -0.25 0.5 -0.25
v -0.25 0.5 0.25
vt 0.5 1
vt 1 1
vt 1 0.75
vt 0.5 0.75
vt 0.5 1
vt 1 1
vt 1 0.75
vt 0.5 0.75
vt 0.5 1
vt 1 1
vt 1 0.75
vt 0.5 0.75
vt 0.5 1
vt 1 1
vt 1 0.75
vt 0.5 0.75
vt 0.5 0.5
vt 0 0.5
vt 0 1
vt 0.5 1
vt 0.5 0.5
vt 0 0.5
vt 0 0
vt 0.5 0
vn 0 0 -1
vn 1 0 0
vn 0 0 1
vn -1 0 0
vn 0 1 0
vn 0 -1 0
usemtl m_f2e1103d-1971-8f53-2850-6fe050b34ac2
f 17/44/12 20/43/12 18/42/12 15/41/12
f 16/48/13 17/47/13 15/46/13 14/45/13
f 21/52/14 16/51/14 14/50/14 19/49/14
f 20/56/15 21/55/15 19/54/15 18/53/15
f 19/60/16 14/59/16 15/58/16 18/57/16
f 20/64/17 17/63/17 16/62/17 21/61/17
o cube
v 0.09375 0.3756504775053533 0.508232998977831
v 0.09375 0.508232998977831 0.3756504775053534
v 0.09375 0.022097086912079594 0.15467960838455727
v 0.09375 0.15467960838455727 0.022097086912079622
v -0.09375 0.508232998977831 0.3756504775053534
v -0.09375 0.3756504775053533 0.508232998977831
v -0.09375 0.15467960838455727 0.022097086912079622
v -0.09375 0.022097086912079594 0.15467960838455727
vt 0 1
vt 0.1875 1
vt 0.1875 0.5
vt 0 0.5
vt 0.1875 1
vt 0.375 1
vt 0.375 0.5
vt 0.1875 0.5
vt 0.375 1
vt 0.5625 1
vt 0.5625 0.5
vt 0.375 0.5
vt 0 0.5
vt 0.1875 0.5
vt 0.1875 0
vt 0 0
vt 0.375 0.3125
vt 0.1875 0.3125
vt 0.1875 0.5
vt 0.375 0.5
vt 0.5625 0.5
vt 0.375 0.5
vt 0.375 0.3125
vt 0.5625 0.3125
vn 0 0.7071067811865476 -0.7071067811865475
vn 1 0 0
vn 0 -0.7071067811865476 0.7071067811865475
vn -1 0 0
vn 0 0.7071067811865475 0.7071067811865476
vn 0 -0.7071067811865475 -0.7071067811865476
usemtl m_1a144dd1-1fa9-e574-2a63-db91a706255f
f 25/68/18 28/67/18 26/66/18 23/65/18
f 24/72/19 25/71/19 23/70/19 22/69/19
f 29/76/20 24/75/20 22/74/20 27/73/20
f 28/80/21 29/79/21 27/78/21 26/77/21
f 27/84/22 22/83/22 23/82/22 26/81/22
f 28/88/23 25/87/23 24/86/23 29/85/23
o cube
v 0.09375 0.508232998977831 -0.3756504775053534
v 0.09375 0.3756504775053533 -0.508232998977831
v 0.09375 0.15467960838455727 -0.022097086912079622
v 0.09375 0.022097086912079594 -0.15467960838455727
v -0.09375 0.3756504775053533 -0.508232998977831
v -0.09375 0.508232998977831 -0.3756504775053534
v -0.09375 0.022097086912079594 -0.15467960838455727
v -0.09375 0.15467960838455727 -0.022097086912079622
vt 0 1
vt 0.1875 1
vt 0.1875 0.5
vt 0 0.5
vt 0.1875 1
vt 0.375 1
vt 0.375 0.5
vt 0.1875 0.5
vt 0.375 1
vt 0.5625 1
vt 0.5625 0.5
vt 0.375 0.5
vt 0 0.5
vt 0.1875 0.5
vt 0.1875 0
vt 0 0
vt 0.375 0.3125
vt 0.1875 0.3125
vt 0.1875 0.5
vt 0.375 0.5
vt 0.5625 0.5
vt 0.375 0.5
vt 0.375 0.3125
vt 0.5625 0.3125
vn 0 -0.7071067811865476 -0.7071067811865475
vn 1 0 0
vn 0 0.7071067811865476 0.7071067811865475
vn -1 0 0
vn 0 0.7071067811865475 -0.7071067811865476
vn 0 -0.7071067811865475 0.7071067811865476
usemtl m_1a144dd1-1fa9-e574-2a63-db91a706255f
f 33/92/24 36/91/24 34/90/24 31/89/24
f 32/96/25 33/95/25 31/94/25 30/93/25
f 37/100/26 32/99/26 30/98/26 35/97/26
f 36/104/27 37/103/27 35/102/27 34/101/27
f 35/108/28 30/107/28 31/106/28 34/105/28
f 36/112/29 33/111/29 32/110/29 37/109/29
o cube
v -0.3756504775053534 0.508232998977831 0.09375
v -0.3756504775053534 0.508232998977831 -0.09375
v -0.022097086912079622 0.15467960838455727 0.09375
v -0.022097086912079622 0.15467960838455727 -0.09375
v -0.508232998977831 0.3756504775053533 -0.09375
v -0.508232998977831 0.3756504775053533 0.09375
v -0.15467960838455727 0.022097086912079594 -0.09375
v -0.15467960838455727 0.022097086912079594 0.09375
vt 0 1
vt 0.1875 1
vt 0.1875 0.5
vt 0 0.5
vt 0.1875 1
vt 0.375 1
vt 0.375 0.5
vt 0.1875 0.5
vt 0.375 1
vt 0.5625 1
vt 0.5625 0.5
vt 0.375 0.5
vt 0 0.5
vt 0.1875 0.5
vt 0.1875 0
vt 0 0
vt 0.375 0.3125
vt 0.1875 0.3125
vt 0.1875 0.5
vt 0.375 0.5
vt 0.5625 0.5
vt 0.375 0.5
vt 0.375 0.3125
vt 0.5625 0.3125
vn 0 0 -1
vn 0.7071067811865475 0.7071067811865476 0
vn 0 0 1
vn -0.7071067811865475 -0.7071067811865476 0
vn -0.7071067811865476 0.7071067811865475 0
vn 0.7071067811865476 -0.7071067811865475 0
usemtl m_1a144dd1-1fa9-e574-2a63-db91a706255f
f 41/116/30 44/115/30 42/114/30 39/113/30
f 40/120/31 41/119/31 39/118/31 38/117/31
f 45/124/32 40/123/32 38/122/32 43/121/32
f 44/128/33 45/127/33 43/126/33 42/125/33
f 43/132/34 38/131/34 39/130/34 42/129/34
f 44/136/35 41/135/35 40/134/35 45/133/35
o cube
v 0.508232998977831 0.3756504775053533 0.09375
v 0.508232998977831 0.3756504775053533 -0.09375
v 0.15467960838455727 0.022097086912079594 0.09375
v 0.15467960838455727 0.022097086912079594 -0.09375
v 0.3756504775053534 0.508232998977831 -0.09375
v 0.3756504775053534 0.508232998977831 0.09375
v 0.022097086912079622 0.15467960838455727 -0.09375
v 0.022097086912079622 0.15467960838455727 0.09375
vt 0 1
vt 0.1875 1
vt 0.1875 0.5
vt 0 0.5
vt 0.1875 1
vt 0.375 1
vt 0.375 0.5
vt 0.1875 0.5
vt 0.375 1
vt 0.5625 1
vt 0.5625 0.5
vt 0.375 0.5
vt 0 0.5
vt 0.1875 0.5
vt 0.1875 0
vt 0 0
vt 0.375 0.3125
vt 0.1875 0.3125
vt 0.1875 0.5
vt 0.375 0.5
vt 0.5625 0.5
vt 0.375 0.5
vt 0.375 0.3125
vt 0.5625 0.3125
vn 0 0 -1
vn 0.7071067811865475 -0.7071067811865476 0
vn 0 0 1
vn -0.7071067811865475 0.7071067811865476 0
vn 0.7071067811865476 0.7071067811865475 0
vn -0.7071067811865476 -0.7071067811865475 0
usemtl m_1a144dd1-1fa9-e574-2a63-db91a706255f
f 49/140/36 52/139/36 50/138/36 47/137/36
f 48/144/37 49/143/37 47/142/37 46/141/37
f 53/148/38 48/147/38 46/146/38 51/145/38
f 52/152/39 53/151/39 51/150/39 50/149/39
f 51/156/40 46/155/40 47/154/40 50/153/40
f 52/160/41 49/159/41 48/158/41 53/157/41