# Made in Blockbench 5.1.6
mtllib piston1.mtl

o cube1
v 0.09375 0.3756504775053533 0.508232998977831
v 0.09375 0.508232998977831 0.3756504775053534
v 0.09375 0.022097086912079594 0.15467960838455727
v 0.09375 0.15467960838455727 0.022097086912079622
v -0.09375 0.508232998977831 0.3756504775053534
v -0.09375 0.3756504775053533 0.508232998977831
v -0.09375 0.15467960838455727 0.022097086912079622
v -0.09375 0.022097086912079594 0.15467960838455727
vt 0 1
vt 0.1875 1
vt 0.1875 0.5
vt 0 0.5
vt 0.1875 1
vt 0.375 1
vt 0.375 0.5
vt 0.1875 0.5
vt 0.375 1
vt 0.5625 1
vt 0.5625 0.5
vt 0.375 0.5
vt 0 0.5
vt 0.1875 0.5
vt 0.1875 0
vt 0 0
vt 0.375 0.3125
vt 0.1875 0.3125
vt 0.1875 0.5
vt 0.375 0.5
vt 0.5625 0.5
vt 0.375 0.5
vt 0.375 0.3125
vt 0.5625 0.3125
vn 0 0.7071067811865476 -0.7071067811865475
vn 1 0 0
vn 0 -0.7071067811865476 0.7071067811865475
vn -1 0 0
vn 0 0.7071067811865475 0.7071067811865476
vn 0 -0.7071067811865475 -0.7071067811865476
usemtl m_1a144dd1-1fa9-e574-2a63-db91a706255f
f 4/4/1 7/3/1 5/2/1 2/1/1
f 3/8/2 4/7/2 2/6/2 1/5/2
f 8/12/3 3/11/3 1/10/3 6/9/3
f 7/16/4 8/15/4 6/14/4 5/13/4
f 6/20/5 1/19/5 2/18/5 5/17/5
f 7/24/6 4/23/6 3/22/6 8/21/6