# Made in Blockbench 5.2.1
mtllib pillar.mtl

o cube
v 0.5 0.5 0.5
v 0.5 0.5 0
v 0.5 0 0.5
v 0.5 0 0
v 0 0.5 0
v 0 0.5 0.5
v 0 0 0
v 0 0 0.5
vt 0 1
vt 0.5 1
vt 0.5 0.5
vt 0 0.5
vt 0 1
vt 0.5 1
vt 0.5 0.5
vt 0 0.5
vt 0.5 1
vt 1 1
vt 1 0.5
vt 0.5 0.5
vt 0.5 0.5
vt 1 0.5
vt 1 0
vt 0.5 0
vt 0 0.5
vt 0.5 0.5
vt 0.5 0
vt 0 0
vt 0 0.5
vt 0.5 0.5
vt 0.5 0
vt 0 0
vn 0 0 -1
vn 1 0 0
vn 0 0 1
vn -1 0 0
vn 0 1 0
vn 0 -1 0
usemtl arcane_stone_bricks_glyphed
f 4/4/1 7/3/1 5/2/1 2/1/1
f 3/8/2 4/7/2 2/6/2 1/5/2
f 8/12/3 3/11/3 1/10/3 6/9/3
f 7/16/4 8/15/4 6/14/4 5/13/4
usemtl arcane_stone_bricks
f 6/20/5 1/19/5 2/18/5 5/17/5
usemtl arcane_stone_bricks_glyphed
f 7/24/6 4/23/6 3/22/6 8/21/6
o cube
v 0 0.5 0.5
v 0 0.5 0
v 0 0 0.5
v 0 0 0
v -0.5 0.5 0
v -0.5 0.5 0.5
v -0.5 0 0
v -0.5 0 0.5
vt 0 1
vt 0.5 1
vt 0.5 0.5
vt 0 0.5
vt 0 0.5
vt 0.5 0.5
vt 0.5 0
vt 0 0
vt 0.5 0.5
vt 1 0.5
vt 1 0
vt 0.5 0
vt 0.5 1
vt 1 1
vt 1 0.5
vt 0.5 0.5
vt 0 0.5
vt 0.5 0.5
vt 0.5 0
vt 0 0
vt 0.5 1
vt 1 1
vt 1 0.5
vt 0.5 0.5
vn 0 0 -1
vn 1 0 0
vn 0 0 1
vn -1 0 0
vn 0 1 0
vn 0 -1 0
usemtl arcane_stone_bricks_glyphed
f 12/28/7 15/27/7 13/26/7 10/25/7
f 11/32/8 12/31/8 10/30/8 9/29/8
f 16/36/9 11/35/9 9/34/9 14/33/9
f 15/40/10 16/39/10 14/38/10 13/37/10
usemtl arcane_stone_bricks
f 14/44/11 9/43/11 10/42/11 13/41/11
usemtl arcane_stone_bricks_glyphed
f 15/48/12 12/47/12 11/46/12 16/45/12
o cube
v 0 0.5 0
v 0 0.5 -0.5
v 0 0 0
v 0 0 -0.5
v -0.5 0.5 -0.5
v -0.5 0.5 0
v -0.5 0 -0.5
v -0.5 0 0
vt 0 0.5
vt 0.5 0.5
vt 0.5 0
vt 0 0
vt 0 1
vt 0.5 1
vt 0.5 0.5
vt 0 0.5
vt 0.5 0.5
vt 1 0.5
vt 1 0
vt 0.5 0
vt 0.5 0.5
vt 1 0.5
vt 1 0
vt 0.5 0
vt 0 0.5
vt 0.5 0.5
vt 0.5 0
vt 0 0
vt 0.5 0.5
vt 1 0.5
vt 1 0
vt 0.5 0
vn 0 0 -1
vn 1 0 0
vn 0 0 1
vn -1 0 0
vn 0 1 0
vn 0 -1 0
usemtl arcane_stone_bricks_glyphed
f 20/52/13 23/51/13 21/50/13 18/49/13
f 19/56/14 20/55/14 18/54/14 17/53/14
f 24/60/15 19/59/15 17/58/15 22/57/15
f 23/64/16 24/63/16 22/62/16 21/61/16
usemtl arcane_stone_bricks
f 22/68/17 17/67/17 18/66/17 21/65/17
usemtl arcane_stone_bricks_glyphed
f 23/72/18 20/71/18 19/70/18 24/69/18
o cube
v 0.5 0.5 0
v 0.5 0.5 -0.5
v 0.5 0 0
v 0.5 0 -0.5
v 0 0.5 -0.5
v 0 0.5 0
v 0 0 -0.5
v 0 0 0
vt 0 1
vt 0.5 1
vt 0.5 0.5
vt 0 0.5
vt 0.5 1
vt 1 1
vt 1 0.5
vt 0.5 0.5
vt 0.5 0.5
vt 1 0.5
vt 1 0
vt 0.5 0
vt 0.5 0.5
vt 1 0.5
vt 1 0
vt 0.5 0
vt 0 0.5
vt 0.5 0.5
vt 0.5 0
vt 0 0
vt 0 1
vt 0.5 1
vt 0.5 0.5
vt 0 0.5
vn 0 0 -1
vn 1 0 0
vn 0 0 1
vn -1 0 0
vn 0 1 0
vn 0 -1 0
usemtl arcane_stone_bricks_glyphed
f 28/76/19 31/75/19 29/74/19 26/73/19
f 27/80/20 28/79/20 26/78/20 25/77/20
f 32/84/21 27/83/21 25/82/21 30/81/21
f 31/88/22 32/87/22 30/86/22 29/85/22
usemtl arcane_stone_bricks
f 30/92/23 25/91/23 26/90/23 29/89/23
usemtl arcane_stone_bricks_glyphed
f 31/96/24 28/95/24 27/94/24 32/93/24
o mesh
v 0.375 0.875 0.3125
v 0.375 0.75 -0.375
v 0.375 0.5 0.375
v 0.375 0.5 -0.375
v -0.3125 1 0.3125
v -0.3125 0.875 -0.375
v -0.375 0.5 0.375
v -0.375 0.5 -0.375
vt 1 1
vt 0 1
vt 0 0.5
vt 1 0.5
vt 1 0.5
vt 1 1
vt 0 1
vt 0 0.5
vt 0 0
vt 1 0
vt 1 1
vt 0 1
vt 1 0
vt 1 1
vt 0 1
vt 0 0
vt 1 0.5
vt 1 1
vt 0 1
vt 0 0.5
vt 1 1
vt 0 1
vt 0 0.5
vt 1 0.5
vn 1 0 0
vn -0.9923721235559484 0.12128992621239369 -0.022052713856798852
vn 0.17609018126512477 0.9684959969581862 -0.17609018126512477
vn 0 -1 0
vn 0.02987738089030049 0.1643255948966527 0.9859535693799162
vn 0 0 -1
usemtl arcane_stone
f 34/97/25 33/98/25 35/99/25 36/100/25
f 39/101/26 37/102/26 38/103/26 40/104/26
f 37/105/27 33/106/27 34/107/27 38/108/27
f 36/109/28 35/110/28 39/111/28 40/112/28
f 35/113/29 33/114/29 37/115/29 39/116/29
f 38/117/30 34/118/30 36/119/30 40/120/30
o mesh
v 0.375 1.25 0.125
v 0.375 1 -0.375
v 0.375 0.875 0.3125
v 0.375 0.75 -0.375
v -0.125 1.5 0.125
v -0.125 1.25 -0.375
v -0.3125 1 0.3125
v -0.3125 0.875 -0.375
vt 1 1
vt 0 1
vt 0 0.5
vt 1 0.5
vt 1 0.5
vt 1 1
vt 0 1
vt 0 0.5
vt 0 0
vt 1 0
vt 1 1
vt 0 1
vt 1 0
vt 1 1
vt 0 1
vt 0 0
vt 1 0.5
vt 1 1
vt 0 1
vt 0 0.5
vt 1 1
vt 0 1
vt 0 0.5
vt 1 0.5
vn 1 0 0
vn -0.9429541672723839 0.2977750001912791 -0.14888750009563956
vn 0.4082482904638631 0.8164965809277261 -0.4082482904638631
vn -0.17609018126512477 -0.9684959969581862 0.17609018126512477
vn 0.21821789023599242 0.43643578047198484 0.8728715609439697
vn 0 0 -1
usemtl arcane_stone
f 42/121/31 41/122/31 43/123/31 44/124/31
f 47/125/32 45/126/32 46/127/32 48/128/32
f 45/129/33 41/130/33 42/131/33 46/132/33
f 44/133/34 43/134/34 47/135/34 48/136/34
f 43/137/35 41/138/35 45/139/35 47/140/35
f 46/141/36 42/142/36 44/143/36 48/144/36
o mesh
v 0.375 2 -0.25
v 0.375 1.875 -0.375
v 0.375 1.25 0.125
v 0.375 1 -0.375
v 0.25 2.125 -0.25
v 0.25 2 -0.375
v -0.125 1.5 0.125
v -0.125 1.25 -0.375
vt 1 1
vt 0 1
vt 0 0.5
vt 1 0.5
vt 1 0.5
vt 1 1
vt 0 1
vt 0 0.5
vt 0 0
vt 1 0
vt 1 1
vt 0 1
vt 1 0
vt 1 1
vt 0 1
vt 0 0
vt 1 0.5
vt 1 1
vt 0 1
vt 0 0.5
vt 1 1
vt 0 1
vt 0 0.5
vt 1 0.5
vn 1 0 0
vn -0.8834522085987725 0.33129457822453967 -0.33129457822453967
vn 0.5773502691896258 0.5773502691896258 -0.5773502691896258
vn -0.4082482904638631 -0.8164965809277261 0.4082482904638631
vn 0.408248290463863 0.408248290463863 0.816496580927726
vn 0 0 -1
usemtl arcane_stone
f 50/145/37 49/146/37 51/147/37 52/148/37
f 55/149/38 53/150/38 54/151/38 56/152/38
f 53/153/39 49/154/39 50/155/39 54/156/39
f 52/157/40 51/158/40 55/159/40 56/160/40
f 51/161/41 49/162/41 53/163/41 55/164/41
f 54/165/42 50/166/42 52/167/42 56/168/42