# Built by thaumref/tools/gen_charger.py from pole.obj and crystal.obj
mtllib block.mtl

o charger
v 0.393306 0.312500 -0.304917
v 0.481694 0.312500 -0.393306
v 0.393306 0.000000 -0.304917
v 0.481694 0.000000 -0.393306
v 0.393306 0.312500 -0.481694
v 0.304917 0.312500 -0.393306
v 0.393306 0.000000 -0.481694
v 0.304917 0.000000 -0.393306
v 0.319509 0.524506 -0.239959
v 0.401169 0.572341 -0.321620
v 0.395615 0.264665 -0.316065
v 0.477275 0.312500 -0.397725
v 0.321620 0.572341 -0.401169
v 0.239959 0.524506 -0.319509
v 0.397725 0.312500 -0.477275
v 0.316065 0.264665 -0.395615
v 0.210355 0.657138 -0.139645
v 0.272855 0.745527 -0.202145
v 0.335355 0.480362 -0.264645
v 0.397855 0.568750 -0.327145
v 0.202145 0.745527 -0.272855
v 0.139645 0.657138 -0.210355
v 0.327145 0.568750 -0.397855
v 0.264645 0.480362 -0.335355
v 0.090420 0.737006 -0.028548
v 0.131233 0.847883 -0.069362
v 0.227623 0.635999 -0.165751
v 0.268436 0.746875 -0.206564
v 0.069362 0.847883 -0.131233
v 0.028548 0.737006 -0.090420
v 0.206564 0.746875 -0.268436
v 0.165751 0.635999 -0.227623
v -0.304917 0.312500 -0.393306
v -0.393306 0.312500 -0.481694
v -0.304917 0.000000 -0.393306
v -0.393306 0.000000 -0.481694
v -0.481694 0.312500 -0.393306
v -0.393306 0.312500 -0.304917
v -0.481694 0.000000 -0.393306
v -0.393306 0.000000 -0.304917
v -0.239959 0.524506 -0.319509
v -0.321620 0.572341 -0.401169
v -0.316065 0.264665 -0.395615
v -0.397725 0.312500 -0.477275
v -0.401169 0.572341 -0.321620
v -0.319509 0.524506 -0.239959
v -0.477275 0.312500 -0.397725
v -0.395615 0.264665 -0.316065
v -0.139645 0.657138 -0.210355
v -0.202145 0.745527 -0.272855
v -0.264645 0.480362 -0.335355
v -0.327145 0.568750 -0.397855
v -0.272855 0.745527 -0.202145
v -0.210355 0.657138 -0.139645
v -0.397855 0.568750 -0.327145
v -0.335355 0.480362 -0.264645
v -0.028548 0.737006 -0.090420
v -0.069362 0.847883 -0.131233
v -0.165751 0.635999 -0.227623
v -0.206564 0.746875 -0.268436
v -0.131233 0.847883 -0.069362
v -0.090420 0.737006 -0.028548
v -0.268436 0.746875 -0.206564
v -0.227623 0.635999 -0.165751
v -0.393306 0.312500 0.304917
v -0.481694 0.312500 0.393306
v -0.393306 0.000000 0.304917
v -0.481694 0.000000 0.393306
v -0.393306 0.312500 0.481694
v -0.304917 0.312500 0.393306
v -0.393306 0.000000 0.481694
v -0.304917 0.000000 0.393306
v -0.319509 0.524506 0.239959
v -0.401169 0.572341 0.321620
v -0.395615 0.264665 0.316065
v -0.477275 0.312500 0.397725
v -0.321620 0.572341 0.401169
v -0.239959 0.524506 0.319509
v -0.397725 0.312500 0.477275
v -0.316065 0.264665 0.395615
v -0.210355 0.657138 0.139645
v -0.272855 0.745527 0.202145
v -0.335355 0.480362 0.264645
v -0.397855 0.568750 0.327145
v -0.202145 0.745527 0.272855
v -0.139645 0.657138 0.210355
v -0.327145 0.568750 0.397855
v -0.264645 0.480362 0.335355
v -0.090420 0.737006 0.028548
v -0.131233 0.847883 0.069362
v -0.227623 0.635999 0.165751
v -0.268436 0.746875 0.206564
v -0.069362 0.847883 0.131233
v -0.028548 0.737006 0.090420
v -0.206564 0.746875 0.268436
v -0.165751 0.635999 0.227623
v 0.304917 0.312500 0.393306
v 0.393306 0.312500 0.481694
v 0.304917 0.000000 0.393306
v 0.393306 0.000000 0.481694
v 0.481694 0.312500 0.393306
v 0.393306 0.312500 0.304917
v 0.481694 0.000000 0.393306
v 0.393306 0.000000 0.304917
v 0.239959 0.524506 0.319509
v 0.321620 0.572341 0.401169
v 0.316065 0.264665 0.395615
v 0.397725 0.312500 0.477275
v 0.401169 0.572341 0.321620
v 0.319509 0.524506 0.239959
v 0.477275 0.312500 0.397725
v 0.395615 0.264665 0.316065
v 0.139645 0.657138 0.210355
v 0.202145 0.745527 0.272855
v 0.264645 0.480362 0.335355
v 0.327145 0.568750 0.397855
v 0.272855 0.745527 0.202145
v 0.210355 0.657138 0.139645
v 0.397855 0.568750 0.327145
v 0.335355 0.480362 0.264645
v 0.028548 0.737006 0.090420
v 0.069362 0.847883 0.131233
v 0.165751 0.635999 0.227623
v 0.206564 0.746875 0.268436
v 0.131233 0.847883 0.069362
v 0.090420 0.737006 0.028548
v 0.268436 0.746875 0.206564
v 0.227623 0.635999 0.165751
v -0.000000 0.687500 0.000000
v -0.000000 0.593750 0.000000
v 0.062500 0.687500 -0.062500
v 0.062500 0.687500 0.062500
v -0.062500 0.687500 0.062500
v -0.062500 0.687500 -0.062500
v -0.000000 0.937500 -0.000000
v -0.000000 1.031250 -0.000000
v 0.062500 0.937500 0.062500
v 0.062500 0.937500 -0.062500
v -0.062500 0.937500 -0.062500
v -0.062500 0.937500 0.062500
v 0.062500 0.937500 0.062500
v 0.062500 0.937500 -0.062500
v 0.062500 0.687500 0.062500
v 0.062500 0.687500 -0.062500
v -0.062500 0.937500 -0.062500
v -0.062500 0.937500 0.062500
v -0.062500 0.687500 -0.062500
v -0.062500 0.687500 0.062500
v 0.125000 0.843750 0.125000
v 0.125000 0.843750 -0.125000
v 0.125000 0.781250 0.125000
v 0.125000 0.781250 -0.125000
v -0.125000 0.843750 -0.125000
v -0.125000 0.843750 0.125000
v -0.125000 0.781250 -0.125000
v -0.125000 0.781250 0.125000
vt 0.000000 0.937500
vt 0.125000 0.937500
vt 0.125000 0.625000
vt 0.000000 0.625000
vt 0.000000 0.937500
vt 0.125000 0.937500
vt 0.125000 0.625000
vt 0.000000 0.625000
vt 0.000000 0.937500
vt 0.125000 0.937500
vt 0.125000 0.625000
vt 0.000000 0.625000
vt 0.000000 0.937500
vt 0.125000 0.937500
vt 0.125000 0.625000
vt 0.000000 0.625000
vt 0.000000 1.000000
vt 0.125000 1.000000
vt 0.125000 0.875000
vt 0.000000 0.875000
vt 0.000000 1.000000
vt 0.125000 1.000000
vt 0.125000 0.875000
vt 0.000000 0.875000
vt 0.006250 0.906250
vt 0.118750 0.906250
vt 0.118750 0.625000
vt 0.006250 0.625000
vt 0.000000 0.906250
vt 0.125000 0.906250
vt 0.125000 0.625000
vt 0.000000 0.625000
vt 0.006250 0.906250
vt 0.118750 0.906250
vt 0.118750 0.625000
vt 0.006250 0.625000
vt 0.000000 0.906250
vt 0.125000 0.906250
vt 0.125000 0.625000
vt 0.000000 0.625000
vt 0.006250 1.000000
vt 0.118750 1.000000
vt 0.118750 0.875000
vt 0.006250 0.875000
vt 0.006250 1.000000
vt 0.118750 1.000000
vt 0.118750 0.875000
vt 0.006250 0.875000
vt 0.012500 0.875000
vt 0.112500 0.875000
vt 0.112500 0.625000
vt 0.012500 0.625000
vt 0.000000 0.875000
vt 0.125000 0.875000
vt 0.125000 0.625000
vt 0.000000 0.625000
vt 0.012500 0.875000
vt 0.112500 0.875000
vt 0.112500 0.625000
vt 0.012500 0.625000
vt 0.000000 0.875000
vt 0.125000 0.875000
vt 0.125000 0.625000
vt 0.000000 0.625000
vt 0.012500 1.000000
vt 0.112500 1.000000
vt 0.112500 0.875000
vt 0.012500 0.875000
vt 0.012500 1.000000
vt 0.112500 1.000000
vt 0.112500 0.875000
vt 0.012500 0.875000
vt 0.018750 0.843750
vt 0.106250 0.843750
vt 0.106250 0.625000
vt 0.018750 0.625000
vt 0.000000 0.843750
vt 0.125000 0.843750
vt 0.125000 0.625000
vt 0.000000 0.625000
vt 0.018750 0.843750
vt 0.106250 0.843750
vt 0.106250 0.625000
vt 0.018750 0.625000
vt 0.000000 0.843750
vt 0.125000 0.843750
vt 0.125000 0.625000
vt 0.000000 0.625000
vt 0.018750 1.000000
vt 0.106250 1.000000
vt 0.106250 0.875000
vt 0.018750 0.875000
vt 0.018750 1.000000
vt 0.106250 1.000000
vt 0.106250 0.875000
vt 0.018750 0.875000
vt 0.000000 0.937500
vt 0.125000 0.937500
vt 0.125000 0.625000
vt 0.000000 0.625000
vt 0.000000 0.937500
vt 0.125000 0.937500
vt 0.125000 0.625000
vt 0.000000 0.625000
vt 0.000000 0.937500
vt 0.125000 0.937500
vt 0.125000 0.625000
vt 0.000000 0.625000
vt 0.000000 0.937500
vt 0.125000 0.937500
vt 0.125000 0.625000
vt 0.000000 0.625000
vt 0.000000 1.000000
vt 0.125000 1.000000
vt 0.125000 0.875000
vt 0.000000 0.875000
vt 0.000000 1.000000
vt 0.125000 1.000000
vt 0.125000 0.875000
vt 0.000000 0.875000
vt 0.006250 0.906250
vt 0.118750 0.906250
vt 0.118750 0.625000
vt 0.006250 0.625000
vt 0.000000 0.906250
vt 0.125000 0.906250
vt 0.125000 0.625000
vt 0.000000 0.625000
vt 0.006250 0.906250
vt 0.118750 0.906250
vt 0.118750 0.625000
vt 0.006250 0.625000
vt 0.000000 0.906250
vt 0.125000 0.906250
vt 0.125000 0.625000
vt 0.000000 0.625000
vt 0.006250 1.000000
vt 0.118750 1.000000
vt 0.118750 0.875000
vt 0.006250 0.875000
vt 0.006250 1.000000
vt 0.118750 1.000000
vt 0.118750 0.875000
vt 0.006250 0.875000
vt 0.012500 0.875000
vt 0.112500 0.875000
vt 0.112500 0.625000
vt 0.012500 0.625000
vt 0.000000 0.875000
vt 0.125000 0.875000
vt 0.125000 0.625000
vt 0.000000 0.625000
vt 0.012500 0.875000
vt 0.112500 0.875000
vt 0.112500 0.625000
vt 0.012500 0.625000
vt 0.000000 0.875000
vt 0.125000 0.875000
vt 0.125000 0.625000
vt 0.000000 0.625000
vt 0.012500 1.000000
vt 0.112500 1.000000
vt 0.112500 0.875000
vt 0.012500 0.875000
vt 0.012500 1.000000
vt 0.112500 1.000000
vt 0.112500 0.875000
vt 0.012500 0.875000
vt 0.018750 0.843750
vt 0.106250 0.843750
vt 0.106250 0.625000
vt 0.018750 0.625000
vt 0.000000 0.843750
vt 0.125000 0.843750
vt 0.125000 0.625000
vt 0.000000 0.625000
vt 0.018750 0.843750
vt 0.106250 0.843750
vt 0.106250 0.625000
vt 0.018750 0.625000
vt 0.000000 0.843750
vt 0.125000 0.843750
vt 0.125000 0.625000
vt 0.000000 0.625000
vt 0.018750 1.000000
vt 0.106250 1.000000
vt 0.106250 0.875000
vt 0.018750 0.875000
vt 0.018750 1.000000
vt 0.106250 1.000000
vt 0.106250 0.875000
vt 0.018750 0.875000
vt 0.000000 0.937500
vt 0.125000 0.937500
vt 0.125000 0.625000
vt 0.000000 0.625000
vt 0.000000 0.937500
vt 0.125000 0.937500
vt 0.125000 0.625000
vt 0.000000 0.625000
vt 0.000000 0.937500
vt 0.125000 0.937500
vt 0.125000 0.625000
vt 0.000000 0.625000
vt 0.000000 0.937500
vt 0.125000 0.937500
vt 0.125000 0.625000
vt 0.000000 0.625000
vt 0.000000 1.000000
vt 0.125000 1.000000
vt 0.125000 0.875000
vt 0.000000 0.875000
vt 0.000000 1.000000
vt 0.125000 1.000000
vt 0.125000 0.875000
vt 0.000000 0.875000
vt 0.006250 0.906250
vt 0.118750 0.906250
vt 0.118750 0.625000
vt 0.006250 0.625000
vt 0.000000 0.906250
vt 0.125000 0.906250
vt 0.125000 0.625000
vt 0.000000 0.625000
vt 0.006250 0.906250
vt 0.118750 0.906250
vt 0.118750 0.625000
vt 0.006250 0.625000
vt 0.000000 0.906250
vt 0.125000 0.906250
vt 0.125000 0.625000
vt 0.000000 0.625000
vt 0.006250 1.000000
vt 0.118750 1.000000
vt 0.118750 0.875000
vt 0.006250 0.875000
vt 0.006250 1.000000
vt 0.118750 1.000000
vt 0.118750 0.875000
vt 0.006250 0.875000
vt 0.012500 0.875000
vt 0.112500 0.875000
vt 0.112500 0.625000
vt 0.012500 0.625000
vt 0.000000 0.875000
vt 0.125000 0.875000
vt 0.125000 0.625000
vt 0.000000 0.625000
vt 0.012500 0.875000
vt 0.112500 0.875000
vt 0.112500 0.625000
vt 0.012500 0.625000
vt 0.000000 0.875000
vt 0.125000 0.875000
vt 0.125000 0.625000
vt 0.000000 0.625000
vt 0.012500 1.000000
vt 0.112500 1.000000
vt 0.112500 0.875000
vt 0.012500 0.875000
vt 0.012500 1.000000
vt 0.112500 1.000000
vt 0.112500 0.875000
vt 0.012500 0.875000
vt 0.018750 0.843750
vt 0.106250 0.843750
vt 0.106250 0.625000
vt 0.018750 0.625000
vt 0.000000 0.843750
vt 0.125000 0.843750
vt 0.125000 0.625000
vt 0.000000 0.625000
vt 0.018750 0.843750
vt 0.106250 0.843750
vt 0.106250 0.625000
vt 0.018750 0.625000
vt 0.000000 0.843750
vt 0.125000 0.843750
vt 0.125000 0.625000
vt 0.000000 0.625000
vt 0.018750 1.000000
vt 0.106250 1.000000
vt 0.106250 0.875000
vt 0.018750 0.875000
vt 0.018750 1.000000
vt 0.106250 1.000000
vt 0.106250 0.875000
vt 0.018750 0.875000
vt 0.000000 0.937500
vt 0.125000 0.937500
vt 0.125000 0.625000
vt 0.000000 0.625000
vt 0.000000 0.937500
vt 0.125000 0.937500
vt 0.125000 0.625000
vt 0.000000 0.625000
vt 0.000000 0.937500
vt 0.125000 0.937500
vt 0.125000 0.625000
vt 0.000000 0.625000
vt 0.000000 0.937500
vt 0.125000 0.937500
vt 0.125000 0.625000
vt 0.000000 0.625000
vt 0.000000 1.000000
vt 0.125000 1.000000
vt 0.125000 0.875000
vt 0.000000 0.875000
vt 0.000000 1.000000
vt 0.125000 1.000000
vt 0.125000 0.875000
vt 0.000000 0.875000
vt 0.006250 0.906250
vt 0.118750 0.906250
vt 0.118750 0.625000
vt 0.006250 0.625000
vt 0.000000 0.906250
vt 0.125000 0.906250
vt 0.125000 0.625000
vt 0.000000 0.625000
vt 0.006250 0.906250
vt 0.118750 0.906250
vt 0.118750 0.625000
vt 0.006250 0.625000
vt 0.000000 0.906250
vt 0.125000 0.906250
vt 0.125000 0.625000
vt 0.000000 0.625000
vt 0.006250 1.000000
vt 0.118750 1.000000
vt 0.118750 0.875000
vt 0.006250 0.875000
vt 0.006250 1.000000
vt 0.118750 1.000000
vt 0.118750 0.875000
vt 0.006250 0.875000
vt 0.012500 0.875000
vt 0.112500 0.875000
vt 0.112500 0.625000
vt 0.012500 0.625000
vt 0.000000 0.875000
vt 0.125000 0.875000
vt 0.125000 0.625000
vt 0.000000 0.625000
vt 0.012500 0.875000
vt 0.112500 0.875000
vt 0.112500 0.625000
vt 0.012500 0.625000
vt 0.000000 0.875000
vt 0.125000 0.875000
vt 0.125000 0.625000
vt 0.000000 0.625000
vt 0.012500 1.000000
vt 0.112500 1.000000
vt 0.112500 0.875000
vt 0.012500 0.875000
vt 0.012500 1.000000
vt 0.112500 1.000000
vt 0.112500 0.875000
vt 0.012500 0.875000
vt 0.018750 0.843750
vt 0.106250 0.843750
vt 0.106250 0.625000
vt 0.018750 0.625000
vt 0.000000 0.843750
vt 0.125000 0.843750
vt 0.125000 0.625000
vt 0.000000 0.625000
vt 0.018750 0.843750
vt 0.106250 0.843750
vt 0.106250 0.625000
vt 0.018750 0.625000
vt 0.000000 0.843750
vt 0.125000 0.843750
vt 0.125000 0.625000
vt 0.000000 0.625000
vt 0.018750 1.000000
vt 0.106250 1.000000
vt 0.106250 0.875000
vt 0.018750 0.875000
vt 0.018750 1.000000
vt 0.106250 1.000000
vt 0.106250 0.875000
vt 0.018750 0.875000
vt 0.292893 0.292893
vt 1.000000 1.000000
vt 0.292893 1.000000
vt 0.437500 0.105387
vt 0.562500 0.105387
vt 0.500000 0.000000
vt 0.292893 1.000000
vt 1.000000 0.292893
vt 1.000000 1.000000
vt 0.437500 0.105387
vt 0.562500 0.105387
vt 0.500000 0.000000
vt 1.000000 1.000000
vt 0.292893 0.292893
vt 1.000000 0.292893
vt 0.437500 0.105387
vt 0.562500 0.105387
vt 0.500000 0.000000
vt 1.000000 0.292893
vt 0.292893 1.000000
vt 0.292893 0.292893
vt 0.437500 0.105387
vt 0.562500 0.105387
vt 0.500000 0.000000
vt 0.292893 0.000000
vt 1.000000 0.707107
vt 0.292893 0.707107
vt 0.437500 0.917887
vt 0.562500 0.917887
vt 0.500000 1.000000
vt 0.292893 0.707107
vt 1.000000 0.000000
vt 1.000000 0.707107
vt 0.437500 0.917887
vt 0.562500 0.917887
vt 0.500000 1.000000
vt 1.000000 0.707107
vt 0.292893 0.000000
vt 1.000000 0.000000
vt 0.437500 0.917887
vt 0.562500 0.917887
vt 0.500000 1.000000
vt 1.000000 0.000000
vt 0.292893 0.707107
vt 0.292893 0.000000
vt 0.437500 0.917887
vt 0.562500 0.917887
vt 0.500000 1.000000
vt 0.437500 0.750000
vt 0.562500 0.750000
vt 0.562500 0.500000
vt 0.437500 0.500000
vt 0.562500 0.625000
vt 0.687500 0.625000
vt 0.687500 0.375000
vt 0.562500 0.375000
vt 0.437500 0.500000
vt 0.562500 0.500000
vt 0.562500 0.250000
vt 0.437500 0.250000
vt 0.312500 0.625000
vt 0.437500 0.625000
vt 0.437500 0.375000
vt 0.312500 0.375000
vt 0.437500 0.875000
vt 0.562500 0.875000
vt 0.562500 0.750000
vt 0.437500 0.750000
vt 0.437500 0.250000
vt 0.562500 0.250000
vt 0.562500 0.125000
vt 0.437500 0.125000
vt 0.000000 0.843750
vt 0.250000 0.843750
vt 0.250000 0.781250
vt 0.000000 0.781250
vt 0.000000 0.843750
vt 0.250000 0.843750
vt 0.250000 0.781250
vt 0.000000 0.781250
vt 0.000000 0.843750
vt 0.250000 0.843750
vt 0.250000 0.781250
vt 0.000000 0.781250
vt 0.000000 0.843750
vt 0.250000 0.843750
vt 0.250000 0.781250
vt 0.000000 0.781250
vt 0.000000 1.000000
vt 0.250000 1.000000
vt 0.250000 0.750000
vt 0.000000 0.750000
vt 0.000000 1.000000
vt 0.250000 1.000000
vt 0.250000 0.750000
vt 0.000000 0.750000
vn 0.707107 0.000000 -0.707107
vn 0.707107 0.000000 0.707107
vn -0.707107 0.000000 0.707107
vn -0.707107 0.000000 -0.707107
vn 0.000000 1.000000 0.000000
vn 0.000000 -1.000000 0.000000
vn 0.653281 0.382683 -0.653281
vn 0.707107 0.000000 0.707107
vn -0.653281 -0.382683 0.653281
vn -0.707107 0.000000 -0.707107
vn -0.270598 0.923880 0.270598
vn 0.270598 -0.923880 -0.270598
vn 0.500000 0.707107 -0.500000
vn 0.707107 0.000000 0.707107
vn -0.500000 -0.707107 0.500000
vn -0.707107 0.000000 -0.707107
vn -0.500000 0.707107 0.500000
vn 0.500000 -0.707107 -0.500000
vn 0.326506 0.887011 -0.326506
vn 0.707107 0.000000 0.707107
vn -0.326506 -0.887011 0.326506
vn -0.707107 0.000000 -0.707107
vn -0.627211 0.461749 0.627211
vn 0.627211 -0.461749 -0.627211
vn -0.707107 0.000000 -0.707107
vn 0.707107 0.000000 -0.707107
vn 0.707107 0.000000 0.707107
vn -0.707107 0.000000 0.707107
vn 0.000000 1.000000 0.000000
vn 0.000000 -1.000000 0.000000
vn -0.653281 0.382683 -0.653281
vn 0.707107 0.000000 -0.707107
vn 0.653281 -0.382683 0.653281
vn -0.707107 0.000000 0.707107
vn 0.270598 0.923880 0.270598
vn -0.270598 -0.923880 -0.270598
vn -0.500000 0.707107 -0.500000
vn 0.707107 0.000000 -0.707107
vn 0.500000 -0.707107 0.500000
vn -0.707107 0.000000 0.707107
vn 0.500000 0.707107 0.500000
vn -0.500000 -0.707107 -0.500000
vn -0.326506 0.887011 -0.326506
vn 0.707107 0.000000 -0.707107
vn 0.326506 -0.887011 0.326506
vn -0.707107 0.000000 0.707107
vn 0.627211 0.461749 0.627211
vn -0.627211 -0.461749 -0.627211
vn -0.707107 0.000000 0.707107
vn -0.707107 0.000000 -0.707107
vn 0.707107 0.000000 -0.707107
vn 0.707107 0.000000 0.707107
vn 0.000000 1.000000 -0.000000
vn 0.000000 -1.000000 -0.000000
vn -0.653281 0.382683 0.653281
vn -0.707107 0.000000 -0.707107
vn 0.653281 -0.382683 -0.653281
vn 0.707107 0.000000 0.707107
vn 0.270598 0.923880 -0.270598
vn -0.270598 -0.923880 0.270598
vn -0.500000 0.707107 0.500000
vn -0.707107 0.000000 -0.707107
vn 0.500000 -0.707107 -0.500000
vn 0.707107 0.000000 0.707107
vn 0.500000 0.707107 -0.500000
vn -0.500000 -0.707107 0.500000
vn -0.326506 0.887011 0.326506
vn -0.707107 0.000000 -0.707107
vn 0.326506 -0.887011 -0.326506
vn 0.707107 0.000000 0.707107
vn 0.627211 0.461749 -0.627211
vn -0.627211 -0.461749 0.627211
vn 0.707107 0.000000 0.707107
vn -0.707107 0.000000 0.707107
vn -0.707107 0.000000 -0.707107
vn 0.707107 0.000000 -0.707107
vn -0.000000 1.000000 0.000000
vn -0.000000 -1.000000 0.000000
vn 0.653281 0.382683 0.653281
vn -0.707107 0.000000 0.707107
vn -0.653281 -0.382683 -0.653281
vn 0.707107 0.000000 -0.707107
vn -0.270598 0.923880 -0.270598
vn 0.270598 -0.923880 0.270598
vn 0.500000 0.707107 0.500000
vn -0.707107 0.000000 0.707107
vn -0.500000 -0.707107 -0.500000
vn 0.707107 0.000000 -0.707107
vn -0.500000 0.707107 -0.500000
vn 0.500000 -0.707107 0.500000
vn 0.326506 0.887011 0.326506
vn -0.707107 0.000000 0.707107
vn -0.326506 -0.887011 -0.326506
vn 0.707107 0.000000 -0.707107
vn -0.627211 0.461749 -0.627211
vn 0.627211 -0.461749 0.627211
vn 0.000000 1.000000 0.000000
vn 0.832050 -0.554700 -0.000000
vn 0.000000 1.000000 0.000000
vn 0.000000 -0.554700 0.832050
vn 0.000000 1.000000 0.000000
vn -0.832050 -0.554700 0.000000
vn 0.000000 1.000000 0.000000
vn -0.000000 -0.554700 -0.832050
vn 0.000000 -1.000000 0.000000
vn 0.832050 0.554700 0.000000
vn 0.000000 -1.000000 0.000000
vn 0.000000 0.554700 -0.832050
vn 0.000000 -1.000000 0.000000
vn -0.832050 0.554700 -0.000000
vn 0.000000 -1.000000 0.000000
vn -0.000000 0.554700 0.832050
vn 0.000000 0.000000 -1.000000
vn 1.000000 0.000000 0.000000
vn 0.000000 0.000000 1.000000
vn -1.000000 0.000000 0.000000
vn 0.000000 1.000000 0.000000
vn 0.000000 -1.000000 0.000000
vn 0.000000 0.000000 -1.000000
vn 1.000000 0.000000 0.000000
vn 0.000000 0.000000 1.000000
vn -1.000000 0.000000 0.000000
vn 0.000000 1.000000 0.000000
vn 0.000000 -1.000000 0.000000
usemtl wood
f 4/4/1 7/3/1 5/2/1 2/1/1
f 3/8/2 4/7/2 2/6/2 1/5/2
f 8/12/3 3/11/3 1/10/3 6/9/3
f 7/16/4 8/15/4 6/14/4 5/13/4
f 6/20/5 1/19/5 2/18/5 5/17/5
f 7/24/6 4/23/6 3/22/6 8/21/6
f 12/28/7 15/27/7 13/26/7 10/25/7
f 11/32/8 12/31/8 10/30/8 9/29/8
f 16/36/9 11/35/9 9/34/9 14/33/9
f 15/40/10 16/39/10 14/38/10 13/37/10
f 14/44/11 9/43/11 10/42/11 13/41/11
f 15/48/12 12/47/12 11/46/12 16/45/12
f 20/52/13 23/51/13 21/50/13 18/49/13
f 19/56/14 20/55/14 18/54/14 17/53/14
f 24/60/15 19/59/15 17/58/15 22/57/15
f 23/64/16 24/63/16 22/62/16 21/61/16
f 22/68/17 17/67/17 18/66/17 21/65/17
f 23/72/18 20/71/18 19/70/18 24/69/18
usemtl band
f 28/76/19 31/75/19 29/74/19 26/73/19
f 27/80/20 28/79/20 26/78/20 25/77/20
f 32/84/21 27/83/21 25/82/21 30/81/21
f 31/88/22 32/87/22 30/86/22 29/85/22
f 30/92/23 25/91/23 26/90/23 29/89/23
f 31/96/24 28/95/24 27/94/24 32/93/24
usemtl wood
f 36/100/25 39/99/25 37/98/25 34/97/25
f 35/104/26 36/103/26 34/102/26 33/101/26
f 40/108/27 35/107/27 33/106/27 38/105/27
f 39/112/28 40/111/28 38/110/28 37/109/28
f 38/116/29 33/115/29 34/114/29 37/113/29
f 39/120/30 36/119/30 35/118/30 40/117/30
f 44/124/31 47/123/31 45/122/31 42/121/31
f 43/128/32 44/127/32 42/126/32 41/125/32
f 48/132/33 43/131/33 41/130/33 46/129/33
f 47/136/34 48/135/34 46/134/34 45/133/34
f 46/140/35 41/139/35 42/138/35 45/137/35
f 47/144/36 44/143/36 43/142/36 48/141/36
f 52/148/37 55/147/37 53/146/37 50/145/37
f 51/152/38 52/151/38 50/150/38 49/149/38
f 56/156/39 51/155/39 49/154/39 54/153/39
f 55/160/40 56/159/40 54/158/40 53/157/40
f 54/164/41 49/163/41 50/162/41 53/161/41
f 55/168/42 52/167/42 51/166/42 56/165/42
usemtl band
f 60/172/43 63/171/43 61/170/43 58/169/43
f 59/176/44 60/175/44 58/174/44 57/173/44
f 64/180/45 59/179/45 57/178/45 62/177/45
f 63/184/46 64/183/46 62/182/46 61/181/46
f 62/188/47 57/187/47 58/186/47 61/185/47
f 63/192/48 60/191/48 59/190/48 64/189/48
usemtl wood
f 68/196/49 71/195/49 69/194/49 66/193/49
f 67/200/50 68/199/50 66/198/50 65/197/50
f 72/204/51 67/203/51 65/202/51 70/201/51
f 71/208/52 72/207/52 70/206/52 69/205/52
f 70/212/53 65/211/53 66/210/53 69/209/53
f 71/216/54 68/215/54 67/214/54 72/213/54
f 76/220/55 79/219/55 77/218/55 74/217/55
f 75/224/56 76/223/56 74/222/56 73/221/56
f 80/228/57 75/227/57 73/226/57 78/225/57
f 79/232/58 80/231/58 78/230/58 77/229/58
f 78/236/59 73/235/59 74/234/59 77/233/59
f 79/240/60 76/239/60 75/238/60 80/237/60
f 84/244/61 87/243/61 85/242/61 82/241/61
f 83/248/62 84/247/62 82/246/62 81/245/62
f 88/252/63 83/251/63 81/250/63 86/249/63
f 87/256/64 88/255/64 86/254/64 85/253/64
f 86/260/65 81/259/65 82/258/65 85/257/65
f 87/264/66 84/263/66 83/262/66 88/261/66
usemtl band
f 92/268/67 95/267/67 93/266/67 90/265/67
f 91/272/68 92/271/68 90/270/68 89/269/68
f 96/276/69 91/275/69 89/274/69 94/273/69
f 95/280/70 96/279/70 94/278/70 93/277/70
f 94/284/71 89/283/71 90/282/71 93/281/71
f 95/288/72 92/287/72 91/286/72 96/285/72
usemtl wood
f 100/292/73 103/291/73 101/290/73 98/289/73
f 99/296/74 100/295/74 98/294/74 97/293/74
f 104/300/75 99/299/75 97/298/75 102/297/75
f 103/304/76 104/303/76 102/302/76 101/301/76
f 102/308/77 97/307/77 98/306/77 101/305/77
f 103/312/78 100/311/78 99/310/78 104/309/78
f 108/316/79 111/315/79 109/314/79 106/313/79
f 107/320/80 108/319/80 106/318/80 105/317/80
f 112/324/81 107/323/81 105/322/81 110/321/81
f 111/328/82 112/327/82 110/326/82 109/325/82
f 110/332/83 105/331/83 106/330/83 109/329/83
f 111/336/84 108/335/84 107/334/84 112/333/84
f 116/340/85 119/339/85 117/338/85 114/337/85
f 115/344/86 116/343/86 114/342/86 113/341/86
f 120/348/87 115/347/87 113/346/87 118/345/87
f 119/352/88 120/351/88 118/350/88 117/349/88
f 118/356/89 113/355/89 114/354/89 117/353/89
f 119/360/90 116/359/90 115/358/90 120/357/90
usemtl band
f 124/364/91 127/363/91 125/362/91 122/361/91
f 123/368/92 124/367/92 122/366/92 121/365/92
f 128/372/93 123/371/93 121/370/93 126/369/93
f 127/376/94 128/375/94 126/374/94 125/373/94
f 126/380/95 121/379/95 122/378/95 125/377/95
f 127/384/96 124/383/96 123/382/96 128/381/96
usemtl crystal
f 132/385/97 131/386/97 129/387/97
f 131/388/98 132/389/98 130/390/98
f 133/391/99 132/392/99 129/393/99
f 132/394/100 133/395/100 130/396/100
f 134/397/101 133/398/101 129/399/101
f 133/400/102 134/401/102 130/402/102
f 131/403/103 134/404/103 129/405/103
f 134/406/104 131/407/104 130/408/104
f 138/409/105 137/410/105 135/411/105
f 137/412/106 138/413/106 136/414/106
f 139/415/107 138/416/107 135/417/107
f 138/418/108 139/419/108 136/420/108
f 140/421/109 139/422/109 135/423/109
f 139/424/110 140/425/110 136/426/110
f 137/427/111 140/428/111 135/429/111
f 140/430/112 137/431/112 136/432/112
f 144/436/113 147/435/113 145/434/113 142/433/113
f 143/440/114 144/439/114 142/438/114 141/437/114
f 148/444/115 143/443/115 141/442/115 146/441/115
f 147/448/116 148/447/116 146/446/116 145/445/116
f 146/452/117 141/451/117 142/450/117 145/449/117
f 147/456/118 144/455/118 143/454/118 148/453/118
usemtl stone
f 152/460/119 155/459/119 153/458/119 150/457/119
f 151/464/120 152/463/120 150/462/120 149/461/120
f 156/468/121 151/467/121 149/466/121 154/465/121
f 155/472/122 156/471/122 154/470/122 153/469/122
f 154/476/123 149/475/123 150/474/123 153/473/123
f 155/480/124 152/479/124 151/478/124 156/477/124
